<svg id="Layer_1" viewBox="0 0 512 512" xmlns="http://www.w3.org/2000/svg" data-name="Layer 1"><path d="m503.995 255.993c0 66.238-25.796 128.513-72.637 175.354-46.849 46.85-109.124 72.651-175.354 72.651-8.284 0-15-6.716-15-15s6.716-15 15-15c58.216 0 112.958-22.681 154.141-63.864 84.993-84.994 84.993-223.288 0-308.282-85.002-85.001-223.309-85-308.31 0-.652.652-1.293 1.314-1.937 1.975h18.939c8.284 0 15 6.716 15 15s-6.716 15-15 15h-55.19c-8.284 0-15-6.716-15-15v-55.19c0-8.284 6.716-15 15-15s15 6.716 15 15v19.015c.657-.672 1.31-1.349 1.974-2.013 46.842-46.84 109.122-72.637 175.37-72.637s128.527 25.796 175.368 72.637 72.637 109.115 72.637 175.354zm-403.956 0c0-86 69.966-155.965 155.965-155.965s155.965 69.965 155.965 155.965-69.965 155.965-155.965 155.965-155.965-69.965-155.965-155.965zm140.965 0c0 5.358 2.858 10.31 7.498 12.989l50.796 29.338c2.363 1.365 4.942 2.013 7.488 2.013 5.183 0 10.225-2.69 13.003-7.5 4.143-7.174 1.687-16.348-5.487-20.491l-43.298-25.007v-70.484c0-8.284-6.716-15-15-15s-15 6.716-15 15v79.143zm-203.01 0c0-8.249-6.718-14.995-14.995-14.995s-14.995 6.746-14.995 14.995 6.746 14.995 14.995 14.995 14.995-6.746 14.995-14.995zm161.573 210.555c-7.994-2.126-16.214 2.608-18.368 10.63-2.126 7.994 2.608 16.214 10.601 18.368 8.022 2.126 16.242-2.608 18.368-10.63 2.154-7.994-2.579-16.214-10.601-18.368zm-52.554-21.77c-7.2-4.139-16.356-1.672-20.494 5.499-4.139 7.172-1.701 16.356 5.471 20.494s16.356 1.672 20.494-5.499c4.139-7.172 1.701-16.356-5.471-20.494zm-66.386-34.639c-5.839 5.868-5.839 15.364 0 21.203 5.868 5.868 15.364 5.868 21.231 0 5.839-5.839 5.839-15.335 0-21.203-5.868-5.868-15.364-5.868-21.231 0zm-33.902-50.626c-7.172 4.138-9.638 13.294-5.499 20.466 4.138 7.172 13.323 9.638 20.494 5.499 7.172-4.138 9.638-13.323 5.499-20.494-4.138-7.172-13.323-9.638-20.494-5.471zm-1.304-47.111c-2.126-7.994-10.346-12.727-18.368-10.601-7.994 2.154-12.756 10.375-10.602 18.368 2.154 8.022 10.375 12.756 18.368 10.63 7.994-2.154 12.756-10.375 10.601-18.397zm-18.368-102.216c8.022 2.126 16.242-2.608 18.368-10.601 2.154-8.022-2.608-16.242-10.601-18.397-7.994-2.126-16.214 2.608-18.368 10.63-2.154 7.994 2.608 16.214 10.602 18.368z" fill-rule="evenodd"/></svg>