<svg height="480pt" viewBox="-88 0 480 480" width="480pt" xmlns="http://www.w3.org/2000/svg"><path d="m160 176c0 4.417969-3.582031 8-8 8s-8-3.582031-8-8 3.582031-8 8-8 8 3.582031 8 8zm0 0"/><path d="m224 184c0 4.417969-3.582031 8-8 8s-8-3.582031-8-8 3.582031-8 8-8 8 3.582031 8 8zm0 0"/><path d="m240 216c0 4.417969-3.582031 8-8 8s-8-3.582031-8-8 3.582031-8 8-8 8 3.582031 8 8zm0 0"/><path d="m80.078125 358.398438c0 .539062-.078125 1.058593-.078125 1.601562-.085938 40.648438 27.679688 76.066406 67.171875 85.683594 39.492187 9.621094 80.4375-9.058594 99.054687-45.191406 18.617188-36.132813 10.066407-80.316407-20.691406-106.890626 35.621094-19.027343 53.71875-59.859374 43.894532-99.03125-9.824219-39.167968-45.050782-66.625-85.433594-66.589843-40.382813.035156-75.558594 27.550781-85.316406 66.738281-35.605469 8.871094-61.960938 38.925781-66.101563 75.386719-4.144531 36.460937 14.792969 71.660156 47.5 88.292969zm159.921875 1.601562c0 39.765625-32.234375 72-72 72s-72-32.234375-72-72 32.234375-72 72-72c39.746094.042969 71.957031 32.253906 72 72zm-56-216c34.574219 0 64.269531 24.574219 70.734375 58.539062 6.464844 33.964844-12.128906 67.730469-44.285156 80.429688-.90625-.503906-1.839844-.9375-2.761719-1.410156.15625-.507813.261719-1.03125.3125-1.558594-.058594-48.578125-39.421875-87.941406-88-88-1.3125 0-2.59375.136719-3.894531.199219 10.152343-28.8125 37.34375-48.117188 67.894531-48.199219zm-64 64c37.929688.042969 69.320312 29.503906 71.769531 67.351562-23.3125-6.636718-48.335937-3.328124-69.117187 9.148438-20.785156 12.472656-35.472656 32.996094-40.582032 56.691406-27.335937-16.949218-40.113281-49.976562-31.304687-80.910156 8.808594-30.9375 37.070313-52.273438 69.234375-52.28125zm0 0"/><path d="m80 264c0 4.417969-3.582031 8-8 8s-8-3.582031-8-8 3.582031-8 8-8 8 3.582031 8 8zm0 0"/><path d="m88 296c0 4.417969-3.582031 8-8 8s-8-3.582031-8-8 3.582031-8 8-8 8 3.582031 8 8zm0 0"/><path d="m112 248c0 4.417969-3.582031 8-8 8s-8-3.582031-8-8 3.582031-8 8-8 8 3.582031 8 8zm0 0"/><path d="m0 408c.0429688 39.746094 32.253906 71.957031 72 72h160c39.746094-.042969 71.957031-32.253906 72-72v-208c0-40.433594-26.296875-100.6875-36.703125-122.953125 7.789063-4.136719 12.671875-12.226563 12.703125-21.046875v-32c0-13.253906-10.746094-24-24-24h-208c-13.253906 0-24 10.746094-24 24v32c.03125 8.820312 4.914062 16.910156 12.703125 21.046875-10.40625 22.265625-36.703125 82.519531-36.703125 122.953125zm40-384c0-4.417969 3.582031-8 8-8h208c4.417969 0 8 3.582031 8 8v32c0 4.417969-3.582031 8-8 8-.089844 0-.160156.046875-.246094.046875-.089844 0-.195312 0-.289062 0-2.570313-21.230469-15.761719-32.046875-39.464844-32.046875-9.984375 0-23.039062 6.894531-38.847656 20.457031-5.980469-7.847656-15.285156-12.457031-25.152344-12.457031s-19.171875 4.609375-25.152344 12.457031c-15.808594-13.5625-28.863281-20.457031-38.847656-20.457031-23.703125 0-36.894531 10.816406-39.464844 32-.09375 0-.183594 0-.277344 0-.097656 0-.167968 0-.257812 0-4.417969 0-8-3.582031-8-8zm160 40h-11.703125c13.71875-11.601562 23.199219-16 27.703125-16 15.558594 0 24 3.824219 24 24s-8.441406 24-24 24c-4.535156 0-13.984375-4.398438-27.703125-16h11.703125c4.417969 0 8-3.582031 8-8s-3.582031-8-8-8zm-32 8c-.019531.765625-.097656 1.527344-.230469 2.28125-.132812.757812-.3125 1.503906-.539062 2.238281.003906.074219.003906.148438 0 .222657-2.035157 6.691406-8.207031 11.265624-15.199219 11.265624s-13.164062-4.574218-15.199219-11.265624c-.003906-.074219-.003906-.148438 0-.222657-.226562-.734375-.40625-1.480469-.535156-2.238281-.308594-1.503906-.308594-3.058594 0-4.5625.128906-.757812.308594-1.503906.535156-2.238281-.003906-.074219-.003906-.148438 0-.222657 2.035157-6.691406 8.207031-11.265624 15.199219-11.265624s13.164062 4.574218 15.199219 11.265624c.003906.074219.003906.148438 0 .222657.226562.734375.40625 1.480469.539062 2.238281.132813.753906.210938 1.515625.230469 2.28125zm-64 8h11.703125c-13.71875 11.601562-23.199219 16-27.703125 16-15.558594 0-24-3.824219-24-24s8.441406-24 24-24c4.535156 0 13.984375 4.398438 27.703125 16h-11.703125c-4.417969 0-8 3.582031-8 8s3.582031 8 8 8zm-88 120c0-35.304688 23.199219-90.007812 33.886719-113.265625 4.425781 16.691406 17.097656 25.265625 38.113281 25.265625 9.984375 0 23.039062-6.894531 38.847656-20.457031 5.980469 7.847656 15.285156 12.457031 25.152344 12.457031s19.171875-4.609375 25.152344-12.457031c15.808594 13.5625 28.863281 20.457031 38.847656 20.457031 21.015625 0 33.6875-8.574219 38.113281-25.265625 10.6875 23.242187 33.886719 77.929687 33.886719 113.265625v208c-.035156 30.914062-25.085938 55.964844-56 56h-160c-30.914062-.035156-55.964844-25.085938-56-56zm0 0"/><path d="m128 344c0 4.417969-3.582031 8-8 8s-8-3.582031-8-8 3.582031-8 8-8 8 3.582031 8 8zm0 0"/><path d="m208 328c0 4.417969-3.582031 8-8 8s-8-3.582031-8-8 3.582031-8 8-8 8 3.582031 8 8zm0 0"/><path d="m136 384c0 4.417969-3.582031 8-8 8s-8-3.582031-8-8 3.582031-8 8-8 8 3.582031 8 8zm0 0"/><path d="m168 376c0 4.417969-3.582031 8-8 8s-8-3.582031-8-8 3.582031-8 8-8 8 3.582031 8 8zm0 0"/><path d="m216 360.558594c.320312 4.402344 4.140625 7.714844 8.542969 7.402344 4.402343-.3125 7.722656-4.128907 7.417969-8.53125-.304688-4.402344-4.117188-7.726563-8.519532-7.429688-2.125.144531-4.105468 1.128906-5.5 2.734375-1.398437 1.605469-2.09375 3.703125-1.941406 5.824219zm0 0"/><path d="m184 408c0 4.417969-3.582031 8-8 8s-8-3.582031-8-8 3.582031-8 8-8 8 3.582031 8 8zm0 0"/></svg>