<svg height="448pt" viewBox="-88 0 448 448" width="448pt" xmlns="http://www.w3.org/2000/svg"><path d="m0 392c.0351562 30.914062 25.085938 55.964844 56 56h160c30.914062-.035156 55.964844-25.085938 56-56v-208c0-35.335938-23.199219-90.023438-33.886719-113.265625-4.425781 16.691406-17.097656 25.265625-38.113281 25.265625-9.984375 0-23.039062-6.894531-38.847656-20.457031-5.980469 7.847656-15.285156 12.457031-25.152344 12.457031s-19.171875-4.609375-25.152344-12.457031c-15.808594 13.5625-28.863281 20.457031-38.847656 20.457031-21.015625 0-33.6875-8.574219-38.113281-25.265625-10.6875 23.257813-33.886719 77.960937-33.886719 113.265625zm82.679688-213.28125c9.757812-39.1875 44.933593-66.703125 85.316406-66.738281 40.382812-.035157 75.609375 27.421875 85.433594 66.589843 9.824218 39.171876-8.273438 80.003907-43.894532 99.03125 30.6875 26.578126 39.195313 70.710938 20.585938 106.792969-18.613282 36.085938-59.5 54.742188-98.953125 45.148438-39.449219-9.59375-67.203125-44.945313-67.167969-85.542969 0-.535156.070312-1.054688.078125-1.601562-32.707031-16.632813-51.644531-51.832032-47.5-88.292969 4.140625-36.460938 30.496094-66.515625 66.101563-75.386719zm0 0"/><path d="m184 64h-11.703125c13.71875 11.601562 23.199219 16 27.703125 16 15.558594 0 24-3.824219 24-24s-8.441406-24-24-24c-4.535156 0-13.984375 4.398438-27.703125 16h11.703125c4.417969 0 8 3.582031 8 8s-3.582031 8-8 8zm0 0"/><path d="m152 272c-39.765625 0-72 32.234375-72 72s32.234375 72 72 72 72-32.234375 72-72c-.042969-39.746094-32.253906-71.957031-72-72zm-56 56c0-4.417969 3.582031-8 8-8s8 3.582031 8 8-3.582031 8-8 8-8-3.582031-8-8zm16 48c-4.417969 0-8-3.582031-8-8s3.582031-8 8-8 8 3.582031 8 8-3.582031 8-8 8zm32-8c-4.417969 0-8-3.582031-8-8s3.582031-8 8-8 8 3.582031 8 8-3.582031 8-8 8zm16 32c-4.417969 0-8-3.582031-8-8s3.582031-8 8-8 8 3.582031 8 8-3.582031 8-8 8zm24-80c-4.417969 0-8-3.582031-8-8s3.582031-8 8-8 8 3.582031 8 8-3.582031 8-8 8zm32 23.441406c.296875 4.402344-3.027344 8.214844-7.429688 8.519532-4.402343.304687-8.21875-3.015626-8.53125-7.417969-.3125-4.402344 3-8.222657 7.402344-8.542969 2.121094-.152344 4.21875.542969 5.824219 1.941406 1.605469 1.394532 2.589844 3.375 2.734375 5.5zm0 0"/><path d="m88 48h11.703125c-13.71875-11.601562-23.167969-16-27.703125-16-15.558594 0-24 3.824219-24 24s8.441406 24 24 24c4.535156 0 13.984375-4.398438 27.703125-16h-11.703125c-4.417969 0-8-3.582031-8-8s3.582031-8 8-8zm0 0"/><path d="m192 264c-.046875.542969-.152344 1.078125-.3125 1.601562.921875.46875 1.855469.902344 2.761719 1.40625 30.921875-12.1875 49.484375-43.957031 44.917969-76.878906-4.570313-32.925781-31.082032-58.441406-64.152344-61.75-33.074219-3.308594-64.113282 16.453125-75.109375 47.820313 1.300781-.0625 2.582031-.199219 3.894531-.199219 48.578125.058594 87.941406 39.421875 88 88zm24-72c4.417969 0 8 3.582031 8 8s-3.582031 8-8 8-8-3.582031-8-8 3.582031-8 8-8zm-16-32c4.417969 0 8 3.582031 8 8s-3.582031 8-8 8-8-3.582031-8-8 3.582031-8 8-8zm-64-8c4.417969 0 8 3.582031 8 8s-3.582031 8-8 8-8-3.582031-8-8 3.582031-8 8-8zm0 0"/><path d="m66.070312 325.191406c5.109376-23.695312 19.796876-44.21875 40.582032-56.691406 20.78125-12.476562 45.804687-15.785156 69.117187-9.148438-2.207031-33.984374-27.9375-61.769531-61.652343-66.578124-33.71875-4.804688-66.1875 14.683593-77.804688 46.699218-11.613281 32.011719.804688 67.789063 29.757812 85.71875zm21.929688-101.191406c4.417969 0 8 3.582031 8 8s-3.582031 8-8 8-8-3.582031-8-8 3.582031-8 8-8zm-16 56c0 4.417969-3.582031 8-8 8s-8-3.582031-8-8 3.582031-8 8-8 8 3.582031 8 8zm-24-32c0-4.417969 3.582031-8 8-8s8 3.582031 8 8-3.582031 8-8 8-8-3.582031-8-8zm0 0"/><path d="m239.464844 48h.289062.246094c4.417969 0 8-3.582031 8-8v-32c0-4.417969-3.582031-8-8-8h-208c-4.417969 0-8 3.582031-8 8v32c0 4.417969 3.582031 8 8 8 .089844 0 .167969.046875.257812.046875h.277344c2.570313-21.207031 15.761719-32 39.464844-32 9.984375 0 23.039062 6.898437 38.847656 20.457031 5.980469-7.847656 15.285156-12.453125 25.152344-12.453125s19.171875 4.605469 25.152344 12.453125c15.808594-13.609375 28.863281-20.503906 38.847656-20.503906 23.703125 0 36.894531 10.816406 39.464844 32zm0 0"/><path d="m151.199219 51.257812c-2.035157-6.691406-8.207031-11.265624-15.199219-11.265624s-13.164062 4.574218-15.199219 11.265624c-.003906.074219-.003906.148438 0 .222657-.226562.734375-.40625 1.480469-.535156 2.238281-.3125 1.503906-.3125 3.058594 0 4.5625.128906.757812.308594 1.503906.535156 2.238281-.003906.074219-.003906.148438 0 .222657 2.035157 6.691406 8.207031 11.265624 15.199219 11.265624s13.164062-4.574218 15.199219-11.265624c.003906-.074219.003906-.148438 0-.222657.226562-.734375.40625-1.480469.535156-2.238281.3125-1.503906.3125-3.058594 0-4.5625-.128906-.757812-.308594-1.503906-.535156-2.238281.003906-.074219.003906-.148438 0-.222657zm0 0"/></svg>