<?xml version="1.0" encoding="iso-8859-1"?>
<!-- Generator: Adobe Illustrator 19.0.0, SVG Export Plug-In . SVG Version: 6.00 Build 0)  -->
<svg version="1.1" id="Capa_1" xmlns="http://www.w3.org/2000/svg" xmlns:xlink="http://www.w3.org/1999/xlink" x="0px" y="0px"
	 viewBox="0 0 512 512" style="enable-background:new 0 0 512 512;" xml:space="preserve">
<g>
	<g>
		<path d="M256,358.4c-5.652,0-10.24,4.588-10.24,10.24s4.588,10.24,10.24,10.24s10.24-4.588,10.24-10.24S261.652,358.4,256,358.4z"
			/>
	</g>
</g>
<g>
	<g>
		<circle cx="256" cy="368.64" r="20.48"/>
	</g>
</g>
<g>
	<g>
		<path d="M256,0C114.831,0,0,114.831,0,256s114.831,256,256,256s256-114.831,256-256S397.169,0,256,0z M256,491.52
			C126.136,491.52,20.48,385.864,20.48,256S126.136,20.48,256,20.48S491.52,126.136,491.52,256S385.864,491.52,256,491.52z"/>
	</g>
</g>
<g>
	<g>
		<path d="M326.513,181.637c-5.059-28.856-28.754-52.552-57.61-57.631c-21.279-3.727-42.742,1.966-58.982,15.626
			c-16.261,13.681-25.6,33.69-25.6,54.927c0,5.652,4.588,10.24,10.24,10.24s10.24-4.588,10.24-10.24
			c0-15.176,6.677-29.471,18.309-39.219c11.796-9.892,26.829-13.865,42.271-11.141c20.521,3.604,37.376,20.48,41.001,41.001
			c3.891,22.2-6.185,43.5-25.702,54.231c-21.873,12.063-34.918,32.891-34.918,57.528v20.48c0,5.652,4.588,10.24,10.24,10.24
			s10.24-4.588,10.199-10.24v-22.282c0-15.278,9.114-29.409,24.33-37.806C317.419,242.565,331.878,212.132,326.513,181.637z"/>
	</g>
</g>
<g>
</g>
<g>
</g>
<g>
</g>
<g>
</g>
<g>
</g>
<g>
</g>
<g>
</g>
<g>
</g>
<g>
</g>
<g>
</g>
<g>
</g>
<g>
</g>
<g>
</g>
<g>
</g>
<g>
</g>
</svg>
