<svg height="512" viewBox="0 0 1024 1024" width="512" xmlns="http://www.w3.org/2000/svg" t="1720180956213" p-id="8343"><path d="m184.552727 768v-512c0-38.539636 31.278545-69.818182 69.818182-69.818182h302.545455v-46.545454h-325.818182c-51.432727 0-93.090909 41.658182-93.090909 93.090909v558.545455c0 51.432727 41.658182 93.090909 93.090909 93.090909h325.818182v-46.545455h-302.545455c-38.586182 0-69.818182-31.278546-69.818182-69.818182zm739.560728-272.477091-164.584727-164.584727c-9.076364-9.076364-23.831273-9.076364-32.907636 0-9.076364 9.076364-9.076364 23.831273 0 32.907636l124.834909 124.834909h-457.448728c-12.846545 0-23.272727 10.426182-23.272727 23.272727s10.426182 23.272727 23.272727 23.272727h457.448727l-124.834909 124.834909c-9.076364 9.076364-9.076364 23.831273 0 32.907636 9.076364 9.076364 23.831273 9.076364 32.907636 0l164.584727-164.584727c9.076364-9.029817 9.076364-23.738181.000001-32.86109z" fill="rgb(0,0,0)" p-id="8344"/></svg>