<svg id="Layer_1" enable-background="new 0 0 64 64" viewBox="0 0 64 64" xmlns="http://www.w3.org/2000/svg"><path d="m39.05722 64c-.64905 0-1.2957-.19471-1.84859-.58655l-4.76571-3.36545c-.25962-.18029-.60578-.18029-.85939.0024l-4.74769 3.36064c-1.10699.77887-2.5938.78848-3.70199.00241l-4.76812-3.36545c-.25962-.1827-.60217-.1827-.85699 0l-2.79693 1.97359c-.98199.69473-2.25725.77645-3.32338.22837-1.06853-.55289-1.732-1.64426-1.732-2.84861v-52.40482c0-3.85825 3.13948-6.99653 6.99773-6.99653h30.69408c3.85825 0 6.99532 3.13828 6.99532 6.99653v52.40002c0 1.20195-.66347 2.29331-1.7332 2.84621-1.07214.55049-2.34139.46155-3.32458-.23077l-2.76928-1.96157c-.25481-.1851-.60338-.1827-.85819 0l-4.74768 3.36064c-.55531.39182-1.20435.58894-1.85341.58894zm-7.04219-6.5482c.64785 0 1.2957.19471 1.84859.58655l4.76571 3.36545c.25722.18029.60578.17789.85819-.0024l4.74768-3.36064c1.10819-.78127 2.59139-.78367 3.7044 0l2.76928 1.96157c.33414.23558.64905.11779.77165.05289.12019-.0625.40145-.25.40145-.65866v-52.40003c0-2.50005-2.03369-4.53494-4.53374-4.53494h-30.69408c-2.50125 0-4.53614 2.03489-4.53614 4.53494v52.40483c0 .40866.28125.60097.40265.66348.12019.0625.43871.18029.77045-.05289l2.79572-1.97359c1.1094-.78367 2.595-.78127 3.69959 0l4.76692 3.36545c.25722.17789.60217.18029.85939-.0024l4.74768-3.36064c.5553-.39185 1.20555-.58897 1.85461-.58897zm-.01443-40.56566c-1.32334 0-2.40029-1.07694-2.40029-2.40029s1.07694-2.40029 2.40029-2.40029h.25842c1.18151 0 2.14187.96035 2.14187 2.14187 0 .6803.55049 1.23079 1.23079 1.23079s1.23079-.55049 1.23079-1.23079c0-2.10941-1.43407-3.87297-3.37266-4.4152v-1.48996c0-.6803-.55049-1.23079-1.23079-1.23079s-1.23079.55049-1.23079 1.23079v1.40012c-2.21624.45193-3.8895 2.41606-3.8895 4.76346 0 2.68034 2.18153 4.86187 4.86187 4.86187 1.32334 0 2.40028 1.07694 2.40028 2.40029 0 1.32334-1.07694 2.40029-2.40028 2.40029h-.25722c-1.18151 0-2.14307-.96036-2.14307-2.14187 0-.6803-.55049-1.23079-1.23079-1.23079s-1.23079.55049-1.23079 1.23079c0 2.29361 1.69159 4.18442 3.8895 4.53104v1.37412c0 .6803.55049 1.23079 1.23079 1.23079s1.23079-.55049 1.23079-1.23079v-1.55952c1.95016-.63327 3.37266-2.44626 3.37266-4.60405 0-2.68035-2.18033-4.86188-4.86187-4.86188zm12.68894 17.22748c0-.6803-.55049-1.23079-1.23079-1.23079h-22.9163c-.6803 0-1.23079.55049-1.23079 1.23079 0 .6791.55049 1.22959 1.23079 1.22959h22.91629c.68031 0 1.2308-.55049 1.2308-1.22959zm0 6.94124c0-.6803-.55049-1.23079-1.23079-1.23079h-22.9163c-.6803 0-1.23079.55049-1.23079 1.23079s.55049 1.23079 1.23079 1.23079h22.91629c.68031 0 1.2308-.55049 1.2308-1.23079zm0 6.94003c0-.6803-.55049-1.23079-1.23079-1.23079h-22.9163c-.6803 0-1.23079.55049-1.23079 1.23079s.55049 1.23079 1.23079 1.23079h22.91629c.68031.00001 1.2308-.55049 1.2308-1.23079z"/></svg>