<?xml version="1.0" encoding="UTF-8" standalone="no"?>
<!-- Created with Inkscape (http://www.inkscape.org/) -->

<svg
   width="1076.8282"
   height="237.81592"
   viewBox="0 0 284.9108 62.922128"
   version="1.1"
   id="svg1"
   xml:space="preserve"
   xmlns="http://www.w3.org/2000/svg"
   xmlns:svg="http://www.w3.org/2000/svg"><defs
     id="defs1" /><g
     id="layer1"
     transform="translate(-163.82552,1524.1089)"><rect
       style="fill:#ffffff;fill-opacity:1;stroke:#000000;stroke-width:0.916542;stroke-opacity:0.996078"
       id="rect5-9-76-0-2"
       width="285.75"
       height="635"
       x="163.54718"
       y="-2095.8276"
       ry="1.696226e-05" /><path
       style="fill:#000000"
       d="m 164.04112,-1461.823 c -0.6768,-1.1018 0.3399,-7.0533 1.6591,-9.7127 2.0795,-4.1919 4.2576,-6.5613 10.3091,-11.2147 5.138,-3.9509 7.6685,-6.7767 8.6307,-9.638 0.872,-2.5933 0.5873,-4.1797 -1.0359,-5.771 -1.9205,-1.8828 -2.0081,-3.4808 -0.3733,-6.8139 1.3543,-2.7615 1.6474,-5.4041 0.8321,-7.5026 -1.1196,-2.8817 -0.2675,-4.5476 2.978,-5.8219 9.6254,-3.7793 51.19,-5.7998 119.5427,-5.811 64.5675,-0.011 106.1446,1.8405 117.7449,5.2421 4.7805,1.4018 5.7806,2.6546 4.683,5.8663 -1.1728,3.4314 -1.1782,4.2989 -0.043,6.938 1.6377,3.8075 1.7794,4.4069 1.3348,5.6472 -0.2226,0.6211 -0.8952,1.5105 -1.4947,1.9764 -1.7127,1.3309 -1.9989,1.8065 -1.9989,3.3214 0,3.2276 2.3702,6.6241 7.174,10.2802 8.2142,6.2517 10.5531,8.587 12.5539,12.5353 1.9455,3.839 2.893,10.2175 1.6153,10.8739 -0.3034,0.1559 -0.6466,0.1883 -0.7627,0.072 -0.116,-0.1162 -0.4967,-1.619 -0.8459,-3.3395 -1.6806,-8.2809 -3.8712,-11.1371 -15.1246,-19.7198 -4.1203,-3.1425 -6.4767,-6.645 -6.8463,-10.1765 l -0.2202,-2.104 -1.0199,0.2126 c -2.5226,0.5258 -8.3261,0.9463 -12.7027,0.9204 -5.5477,-0.033 -5.4318,-0.067 2.2993,-0.6739 9.3097,-0.7309 12.7715,-1.6468 14.5261,-3.8431 1.135,-1.4207 1.1024,-1.694 -0.669,-5.6197 -0.6606,-1.4639 -0.7832,-2.2656 -0.6334,-4.1432 l 0.1857,-2.3281 -2.2084,0.68 c -8.1104,2.4971 -25.7407,4.3439 -44.9678,4.7105 -8.5702,0.1634 -7.2336,-0.2031 2.684,-0.736 16.1246,-0.8663 29.347,-2.3019 37.143,-4.0326 7.5436,-1.6747 9.6132,-3.1766 6.9109,-5.0152 -2.9718,-2.0219 -15.6263,-3.6578 -35.6479,-4.6083 -38.1584,-1.8117 -92.2262,-2.1902 -140.166,-0.9813 -31.9718,0.8062 -53.6303,2.4298 -60.4063,4.5283 -2.1043,0.6517 -3.7143,1.783 -3.7143,2.6101 0,2.2909 7.4291,3.9672 26.334,5.942 3.6318,0.3794 6.6993,0.7492 6.8165,0.8217 0.7022,0.4347 -13.1094,-0.3495 -18.9738,-1.0772 -4.1208,-0.5113 -10.1813,-1.647 -12.1464,-2.276 -0.6652,-0.2129 -1.2622,-0.3872 -1.3266,-0.3872 -0.064,0 -0.1172,1.1164 -0.1172,2.4807 0,2.1041 -0.1999,2.9033 -1.3165,5.2639 -1.6289,3.4436 -1.4471,4.1947 1.4151,5.8462 1.7871,1.0312 3.0347,1.3679 8.503,2.295 1.0539,0.1787 0.96,0.2069 -0.925,0.2778 -1.8843,0.071 -3.7989,-0.1012 -6.1349,-0.5514 -0.7176,-0.1383 -0.7882,-0.069 -0.6554,0.6476 0.2298,1.2387 -0.8905,5.0344 -1.9777,6.7004 -1.3533,2.0741 -3.1681,3.8734 -6.0973,6.0455 -9.2025,6.8241 -11.631,10.1275 -13.1543,17.8935 -0.332,1.6927 -0.6969,3.2682 -0.8108,3.5011 -0.3029,0.6191 -0.898,0.5177 -1.3581,-0.2314 z m 50.0759,-35.3363 c -10.534,-0.7321 -22.616,-2.6079 -21.4492,-3.3302 0.1369,-0.085 2.5118,0.1734 5.2776,0.5735 5.7936,0.8383 12.1951,1.5216 19.6196,2.0943 7.4217,0.5725 8.177,0.7967 2.6122,0.7754 -2.5804,-0.01 -5.3075,-0.061 -6.0602,-0.113 z m 171.6725,0.074 c 0.09,-0.054 1.9223,-0.2218 4.0727,-0.3722 7.9886,-0.5591 18.5178,-1.5171 23.0677,-2.0989 6.0608,-0.775 9.2453,-1.1058 9.4464,-0.9813 0.3038,0.1881 -3.9774,1.1146 -7.8824,1.7057 -4.3166,0.6535 -9.8648,1.2365 -15.2482,1.6023 -3.4141,0.232 -13.7846,0.3433 -13.4562,0.1444 z m -157.4017,-7.9173 c -12.9371,-0.4423 -28.8868,-1.9 -33.9717,-3.1048 -2.3048,-0.5461 -0.5276,-0.5191 5.495,0.084 10.208,1.0213 16.9025,1.4869 35.3188,2.4561 3.9782,0.2094 7.585,0.4759 8.0151,0.5922 0.9766,0.2643 -6.747,0.2502 -14.8572,-0.027 z m 46.629,-4.3293 c -32.7853,-0.5313 -56.7217,-1.7676 -70.762,-3.6546 -8.3449,-1.1216 -12.1838,-2.0605 -11.2555,-2.7529 0.3646,-0.2719 1.0117,-0.2273 3.8382,0.2646 10.9706,1.9093 18.3767,2.6318 35.6556,3.4782 46.8332,2.2941 122.4441,2.1187 158.3465,-0.3674 10.9405,-0.7576 16.3104,-1.3579 23.9869,-2.6816 3.5297,-0.6087 5.1473,-0.7904 5.4376,-0.6107 0.748,0.463 -0.4285,0.9494 -4.1378,1.7108 -10.566,2.1686 -28.8767,3.4975 -60.4748,4.3887 -11.6838,0.3296 -65.0033,0.4783 -80.6347,0.2249 z"
       id="path15-2" /></g></svg>
